<svg width="24" height="24" viewBox="0 0 24 24" fill="none" xmlns="http://www.w3.org/2000/svg">
<path fill-rule="evenodd" clip-rule="evenodd" d="M7.61339 16.1667L8.97548 18.8909L14.0833 16.1667H17.8333C19.214 16.1667 20.3333 15.0474 20.3333 13.6667V7C20.3333 5.61929 19.214 4.5 17.8333 4.5H6.16667C4.78595 4.5 3.66667 5.61929 3.66667 7V13.6667C3.66667 15.0474 4.78595 16.1667 6.16667 16.1667H7.61339ZM8.25 21.1667L6.58333 17.8333H6.16667C3.86548 17.8333 2 15.9679 2 13.6667V7C2 4.69881 3.86548 2.83333 6.16667 2.83333H17.8333C20.1345 2.83333 22 4.69881 22 7V13.6667C22 15.9679 20.1345 17.8333 17.8333 17.8333H14.5L8.25 21.1667Z" fill="#808080"/>
</svg>
