<svg width="16" height="16" viewBox="0 0 16 16" fill="none" xmlns="http://www.w3.org/2000/svg">
<path fill-rule="evenodd" clip-rule="evenodd" d="M1.87881 12.8178C1.87881 12.8154 14.1206 12.8148 14.1206 12.8148L14.1212 4.96296H8.00244C7.59348 4.96294 7.21211 4.76128 6.9882 4.42667L6.18184 3.18815L1.87578 3.18518C1.87941 3.18518 1.87881 12.8178 1.87881 12.8178ZM0.666687 3.18222C0.666687 2.52918 1.21214 2 1.87578 2H6.20517C6.54063 2 6.96063 2.22163 7.14396 2.49511L8.00244 3.77778H14.1188C14.4407 3.77723 14.7496 3.90184 14.9774 4.12416C15.2052 4.34647 15.3333 4.64824 15.3334 4.96296V12.8148C15.3334 13.4696 14.79 14 14.1206 14H1.87941C1.55824 14.0005 1.25 13.8763 1.02255 13.6546C0.795103 13.4328 0.667088 13.1318 0.666687 12.8178V3.18222Z" fill="#202020"/>
</svg>
