<svg width="24" height="24" viewBox="0 0 24 24" fill="none" xmlns="http://www.w3.org/2000/svg">
<path fill-rule="evenodd" clip-rule="evenodd" d="M12.001 6.59771L10.8886 5.60231C10.1212 4.91561 9.11121 4.50001 8 4.50001C5.6059 4.50001 3.66667 6.43955 3.66667 8.82923C3.66667 10.5917 4.51719 12.4469 6.06294 14.3076C7.59837 16.1559 9.70417 17.8665 11.914 19.2998C11.9434 19.3189 11.9722 19.3375 12 19.3554C12.0374 19.3314 12.0764 19.3062 12.1166 19.2801C14.3205 17.8476 16.4183 16.1397 17.9474 14.2954C19.4867 12.4385 20.3333 10.5876 20.3333 8.82923C20.3333 6.43955 18.3941 4.50001 16 4.50001H15.9976C14.9327 4.4985 13.905 4.89089 13.1125 5.60129L12.001 6.59771ZM11.007 20.6981C6.4135 17.7186 2 13.4326 2 8.82923C2 5.518 4.6865 2.83334 8 2.83334C9.5365 2.83334 10.9385 3.41044 12 4.36029C13.0989 3.37517 14.5237 2.83125 16 2.83334C19.3135 2.83334 22 5.518 22 8.82923C22 13.4221 17.6065 17.6997 13.024 20.6781C12.683 20.8995 12.4245 21.0574 12.4245 21.0574C12.1925 21.2018 11.811 21.2038 11.5785 21.0594C11.5785 21.0594 11.3375 20.9125 11.007 20.6981Z" fill="#808080"/>
</svg>
