<svg width="20" height="20" viewBox="0 0 20 20" fill="none" xmlns="http://www.w3.org/2000/svg">
<path fill-rule="evenodd" clip-rule="evenodd" d="M15.8334 8.33333C17.2141 8.33333 18.3334 9.45262 18.3334 10.8333V17.5C18.3334 18.8807 17.2141 20 15.8334 20H4.16669C2.78597 20 1.66669 18.8807 1.66669 17.5V10.8333C1.66669 9.45262 2.78598 8.33333 4.16669 8.33333L4.16669 5.83333C4.16669 2.61167 6.77836 0 10 0C13.2217 0 15.8334 2.61167 15.8334 5.83333V8.33333ZM14.1667 8.33333V5.83333C14.1667 3.53215 12.3012 1.66667 10 1.66667C7.69883 1.66667 5.83335 3.53215 5.83335 5.83333V8.33333H14.1667ZM3.33335 10.8333C3.33335 10.3731 3.70645 10 4.16669 10H15.8334C16.2936 10 16.6667 10.3731 16.6667 10.8333V17.5C16.6667 17.9602 16.2936 18.3333 15.8334 18.3333H4.16669C3.70645 18.3333 3.33335 17.9602 3.33335 17.5V10.8333Z" fill="white" fill-opacity="0.5"/>
</svg>
