<svg width="20" height="20" viewBox="0 0 20 20" fill="none" xmlns="http://www.w3.org/2000/svg">
<path fill-rule="evenodd" clip-rule="evenodd" d="M13.6073 14.7858C12.1707 15.9614 10.3344 16.6667 8.33333 16.6667C3.73096 16.6667 0 12.9357 0 8.33333C0 3.73096 3.73096 0 8.33333 0C12.9357 0 16.6667 3.73096 16.6667 8.33333C16.6667 10.3344 15.9614 12.1707 14.7858 13.6073L19.7559 18.5774C20.0814 18.9028 20.0814 19.4305 19.7559 19.7559C19.4305 20.0814 18.9028 20.0814 18.5774 19.7559L13.6073 14.7858ZM15 8.33333C15 12.0152 12.0152 15 8.33333 15C4.65143 15 1.66667 12.0152 1.66667 8.33333C1.66667 4.65143 4.65143 1.66667 8.33333 1.66667C12.0152 1.66667 15 4.65143 15 8.33333Z" fill="black" fill-opacity="0.25"/>
</svg>
